<svg width="1747" height="258" viewBox="0 0 1747 258" fill="none" xmlns="http://www.w3.org/2000/svg">
<path d="M797.28 188.251H776.352V119.515H797.088C817.824 119.515 831.648 133.339 831.648 153.883C831.648 174.427 817.92 188.251 797.28 188.251ZM796.8 125.851H783.264V181.915H796.992C813.792 181.915 824.544 170.971 824.544 153.883C824.544 136.699 813.792 125.851 796.8 125.851ZM892.295 188.251H885.287L910.535 119.515H919.079L944.615 188.251H937.415L930.695 170.011H899.015L892.295 188.251ZM913.895 129.211L901.127 163.963H928.487L915.623 129.211C915.335 128.251 914.855 127.099 914.759 126.427C914.663 127.003 914.279 128.251 913.895 129.211ZM1000.92 137.371C1000.92 125.851 1010.14 118.267 1023.96 118.267C1036.35 118.267 1044.51 125.179 1045.56 136.699H1038.55C1037.79 128.923 1032.51 124.507 1023.87 124.507C1014.17 124.507 1007.83 129.499 1007.83 137.275C1007.83 143.323 1011.39 147.163 1018.59 148.987L1030.39 151.867C1041.15 154.459 1046.71 160.603 1046.71 169.915C1046.71 181.819 1037.5 189.403 1023.29 189.403C1009.95 189.403 1000.92 182.395 1000.06 171.163H1007.16C1007.55 178.363 1013.88 183.067 1023.29 183.067C1033.37 183.067 1039.8 178.171 1039.8 170.299C1039.8 164.155 1036.35 160.123 1028.95 158.395L1017.34 155.515C1006.59 152.923 1000.92 146.779 1000.92 137.371ZM1116.94 188.251H1110.02V119.515H1116.94V150.139H1154.09V119.515H1160.9V188.251H1154.09V156.571H1116.94V188.251ZM1228.59 188.251V119.515H1253.74C1266.99 119.515 1275.15 126.235 1275.15 137.275C1275.15 145.339 1271.6 150.811 1264.49 153.595C1272.46 156.187 1276.49 161.755 1276.49 170.203C1276.49 181.243 1268.24 188.251 1255.18 188.251H1228.59ZM1253.65 125.659H1235.5V150.811H1254.51C1263.15 150.811 1268.05 146.011 1268.05 137.851C1268.05 130.171 1262.86 125.659 1253.65 125.659ZM1255.18 156.859H1235.5V182.011H1255.18C1264.21 182.011 1269.49 177.307 1269.49 169.339C1269.49 161.563 1264.11 156.859 1255.18 156.859ZM1401.09 153.883C1401.09 174.715 1387.56 189.403 1368.36 189.403C1349.06 189.403 1335.62 174.715 1335.62 153.883C1335.62 133.051 1349.16 118.267 1368.36 118.267C1387.65 118.267 1401.09 132.955 1401.09 153.883ZM1393.99 153.883C1393.99 136.699 1383.53 124.987 1368.36 124.987C1353.19 124.987 1342.82 136.699 1342.82 153.883C1342.82 171.067 1353.19 182.779 1368.36 182.779C1383.53 182.779 1393.99 170.971 1393.99 153.883ZM1461.79 188.251H1454.78L1480.03 119.515H1488.57L1514.11 188.251H1506.91L1500.19 170.011H1468.51L1461.79 188.251ZM1483.39 129.211L1470.62 163.963H1497.98L1485.12 129.211C1484.83 128.251 1484.35 127.099 1484.25 126.427C1484.16 127.003 1483.77 128.251 1483.39 129.211ZM1581.46 188.251H1574.54V119.515H1600.18C1614.1 119.515 1622.54 127.195 1622.54 139.387C1622.54 149.275 1617.36 156.187 1608.53 158.587L1623.22 188.251H1615.54L1601.52 159.739H1581.46V188.251ZM1581.46 125.755V153.499H1600.37C1609.87 153.499 1615.44 148.315 1615.44 139.579C1615.44 130.651 1609.58 125.755 1600.18 125.755H1581.46ZM1707.76 188.251H1686.83V119.515H1707.57C1728.3 119.515 1742.13 133.339 1742.13 153.883C1742.13 174.427 1728.4 188.251 1707.76 188.251ZM1707.28 125.851H1693.74V181.915H1707.47C1724.27 181.915 1735.02 170.971 1735.02 153.883C1735.02 136.699 1724.27 125.851 1707.28 125.851Z" fill="#FCFCFA"/>
<path d="M202.238 257.331C194.025 257.331 187.865 253.909 183.759 247.065C179.653 240.221 179.425 229.613 183.075 215.241L209.424 116.004C211.933 107.107 212.275 100.948 210.45 97.5257C208.853 94.1037 206.458 92.3927 203.264 92.3927C198.702 92.3927 193.455 95.5866 187.523 101.974C181.592 108.134 175.318 116.575 168.702 127.297C162.315 138.019 156.041 150.224 149.882 163.912C143.722 177.599 138.019 191.858 132.772 206.686C127.525 221.515 123.19 236.115 119.768 250.487C119.084 252.997 117.487 254.251 114.978 254.251H101.632C98.4382 254.251 97.1835 252.768 97.8679 249.803L129.35 116.004C131.403 107.107 131.631 100.948 130.034 97.5257C128.666 94.1037 126.384 92.3927 123.19 92.3927C118.856 92.3927 113.723 95.5866 107.792 101.974C101.86 108.134 95.7007 116.575 89.313 127.297C82.9254 138.019 76.6518 150.224 70.4923 163.912C64.3328 177.599 58.6295 191.858 53.3825 206.686C48.1355 221.515 43.9151 236.115 40.7213 250.487C40.0369 252.997 38.44 254.251 35.9305 254.251H21.9005C18.7067 254.251 17.452 252.768 18.1364 249.803L50.6449 113.267C51.7856 108.248 51.8997 104.37 50.9871 101.632C50.3027 98.6663 48.2496 97.1835 44.8276 97.1835C40.7213 97.1835 36.1587 100.263 31.1398 106.423C26.3491 112.354 20.8739 123.761 14.7144 140.642C13.8019 143.608 12.205 145.091 9.92367 145.091C6.50171 145.091 5.58919 143.038 7.18611 138.931C12.205 123.19 17.452 110.871 22.9271 101.974C28.6304 93.0771 34.3336 86.8036 40.0369 83.1535C45.7401 79.5034 50.9871 77.6783 55.7779 77.6783C63.3062 77.6783 68.6672 80.53 71.8611 86.2332C75.0549 91.7084 75.1689 100.834 72.2033 113.609L63.6484 150.566C63.4202 152.163 63.7624 153.075 64.675 153.304C65.5875 153.532 66.3859 152.961 67.0703 151.593C80.3019 124.217 92.2787 105.054 103.001 94.1037C113.723 83.1535 123.533 77.6783 132.43 77.6783C140.87 77.6783 146.802 81.1003 150.224 87.9442C153.874 94.7881 154.102 105.282 150.908 119.426L143.722 150.566C143.494 152.163 143.836 153.075 144.749 153.304C145.661 153.532 146.46 152.961 147.144 151.593C155.813 133.114 163.912 118.514 171.44 107.792C179.196 96.8413 186.497 89.0849 193.34 84.5222C200.184 79.9596 206.572 77.6783 212.503 77.6783C220.944 77.6783 227.104 81.1003 230.982 87.9442C234.86 94.7881 234.86 105.282 230.982 119.426L204.975 218.663C203.378 225.051 203.264 229.841 204.633 233.035C206.002 236.229 208.511 237.826 212.161 237.826C216.724 237.826 221.172 234.86 225.507 228.929C230.069 222.769 234.746 211.249 239.537 194.367C240.221 191.858 241.704 190.603 243.985 190.603C245.81 190.603 246.837 191.287 247.065 192.656C247.521 194.025 247.521 195.622 247.065 197.447C242.731 212.96 238.054 225.165 233.035 234.062C228.016 242.731 222.883 248.776 217.636 252.198C212.617 255.62 207.485 257.331 202.238 257.331ZM294.67 257.331C287.142 257.331 279.158 256.19 270.717 253.909C262.504 251.628 256.23 248.776 251.896 245.354C250.299 243.985 249.615 241.932 249.843 239.195L257.371 194.367C257.827 191.401 259.196 189.918 261.477 189.918C263.987 189.918 265.242 191.515 265.242 194.709L265.926 211.135C266.382 224.138 269.462 233.719 275.165 239.879C281.097 245.81 288.283 248.776 296.724 248.776C304.024 248.776 310.297 246.495 315.544 241.932C320.791 237.141 323.415 230.183 323.415 221.058C323.415 215.811 322.616 211.021 321.019 206.686C319.423 202.123 316.913 197.333 313.491 192.314C310.069 187.067 305.393 180.793 299.461 173.493C291.705 163.455 285.887 154.9 282.009 147.828C278.359 140.528 276.534 133 276.534 125.244C276.534 110.871 280.983 99.3507 289.88 90.6818C299.005 82.0128 310.525 77.6783 324.441 77.6783C330.601 77.6783 336.532 78.5909 342.236 80.4159C348.167 82.2409 353.072 84.9785 356.95 88.6286C359.003 90.2255 359.688 92.2787 359.003 94.7881L349.422 140.642C348.737 143.608 347.369 145.091 345.315 145.091C343.262 145.091 342.007 143.494 341.551 140.3L340.525 123.875C339.612 110.187 337.787 100.377 335.049 94.4459C332.54 88.5145 327.179 85.5488 318.966 85.5488C311.666 85.5488 305.735 88.0583 301.172 93.0771C296.61 98.096 294.328 104.141 294.328 111.213C294.328 118.742 296.381 125.7 300.488 132.087C304.594 138.247 310.183 146.117 317.255 155.699C326.609 168.018 332.882 177.828 336.076 185.128C339.498 192.428 341.209 199.842 341.209 207.37C341.209 216.952 339.042 225.507 334.707 233.035C330.601 240.563 325.012 246.495 317.94 250.829C310.868 255.164 303.111 257.331 294.67 257.331ZM467.054 257.331C455.419 257.331 445.952 247.864 438.652 228.929L419.831 179.31C417.55 173.835 414.698 171.098 411.276 171.098C407.854 171.098 404.889 173.949 402.379 179.653C400.098 184.671 397.588 191.515 394.851 200.184C392.341 208.625 389.946 217.864 387.665 227.902L382.532 250.487C381.847 252.997 380.25 254.251 377.741 254.251H364.395C361.202 254.251 359.947 252.768 360.631 249.803L410.592 35.2461C411.504 31.3679 411.504 28.6303 410.592 27.0334C409.679 25.2084 407.626 24.1818 404.432 23.9536L394.166 22.927C390.744 22.4708 389.262 20.9879 389.718 18.4785C390.174 16.4253 391.771 15.1706 394.509 14.7144C404.318 13.1175 412.189 11.2924 418.12 9.23924C424.052 7.18607 428.614 4.79069 431.808 2.05312C433.633 0.684346 435.23 -4.29747e-05 436.599 -4.29747e-05C439.564 -4.29747e-05 440.705 1.71093 440.021 5.13288L408.196 140.642C407.968 142.239 408.311 143.152 409.223 143.38C410.136 143.608 410.934 143.038 411.618 141.669L422.911 121.479C439.336 92.2787 457.815 77.6783 478.347 77.6783C486.103 77.6783 492.262 79.7315 496.825 83.8379C501.388 87.9442 503.669 93.5334 503.669 100.605C503.669 111.784 498.194 122.962 487.244 134.141C476.521 145.319 462.377 154.444 444.811 161.516C439.336 163.569 437.739 167.219 440.021 172.466L459.868 223.111C462.149 228.815 464.431 232.921 466.712 235.43C468.993 237.712 471.845 238.852 475.267 238.852C480.514 238.852 484.506 235.659 487.244 229.271C489.981 222.655 492.377 211.249 494.43 195.051C494.886 192.086 496.255 190.603 498.536 190.603C501.045 190.603 502.186 192.884 501.958 197.447C500.817 216.61 497.167 231.438 491.008 241.932C485.076 252.198 477.092 257.331 467.054 257.331ZM414.698 155.699C413.786 157.752 413.672 159.349 414.356 160.49C415.268 161.402 416.751 161.63 418.805 161.174C437.739 156.383 453.024 148.513 464.659 137.563C476.293 126.612 482.111 114.521 482.111 101.29C482.111 92.6209 478.803 88.2864 472.187 88.2864C464.431 88.2864 455.419 94.3319 445.154 106.423C434.888 118.286 424.736 134.711 414.698 155.699Z" fill="#FCFCFA"/>
<line x1="639" y1="241.251" x2="639" y2="32.213" stroke="white" stroke-width="2"/>
</svg>
